# xmcd CD database file
#
# Track frame offsets:
#	150
#	5656
#	13082
#	28894
#	35343
#	53302
#	59041
#	65131
#	69501
#	81533
#	99150
#	110512
#	135527
#	150519
#	157942
#	169959
#	185978
#	202219
#	211376
#	223324
#	229981
#
# Disc length: 3392 seconds
#
# Revision: 0
# Processed by: cddbd v1.4PL0 Copyright (c) Steve Scherf et al.
# Submitted via: CDex 1.51
#
DISCID=3b0d3e15
DTITLE=Goodchild, Chlöe - Fierce Wisdom
DYEAR=2002
DGENRE=New Age
TTITLE0=Introduction - Mahamaya
TTITLE1=Jars Of Spring Water
TTITLE2=Om Tara
TTITLE3=Seven Petalled Lotus Ladder
TTITLE4=There Is Some Kiss
TTITLE5=One Self
TTITLE6=Waking Up - Improvisation
TTITLE7=Jars Of Spring Water (Reprise)
TTITLE8=Gala - Hymn To The Earth
TTITLE9=Durga
TTITLE10=AUM
TTITLE11=Sri Ma
TTITLE12=Heart Sutra
TTITLE13=Only Breath
TTITLE14=Naked In Our Song
TTITLE15=How I Love You
TTITLE16=Both At The Same Time
TTITLE17=Homage Ananda Mayi
TTITLE18=Celebration - "Holy Smoke" Film Sound Track
TTITLE19=Zero
TTITLE20=There Is Some Kiss
EXTD=YEAR: 2002
EXTT0=
EXTT1=
EXTT2=
EXTT3=
EXTT4=
EXTT5=
EXTT6=
EXTT7=
EXTT8=
EXTT9=
EXTT10=
EXTT11=
EXTT12=
EXTT13=
EXTT14=
EXTT15=
EXTT16=
EXTT17=
EXTT18=
EXTT19=
EXTT20=
PLAYORDER=
